G04 #@! TF.GenerationSoftware,KiCad,Pcbnew,8.0.7-8.0.7-0~ubuntu24.04.1*
G04 #@! TF.CreationDate,2024-12-31T11:03:13-07:00*
G04 #@! TF.ProjectId,End Cap,456e6420-4361-4702-9e6b-696361645f70,rev?*
G04 #@! TF.SameCoordinates,Original*
G04 #@! TF.FileFunction,Legend,Top*
G04 #@! TF.FilePolarity,Positive*
%FSLAX46Y46*%
G04 Gerber Fmt 4.6, Leading zero omitted, Abs format (unit mm)*
G04 Created by KiCad (PCBNEW 8.0.7-8.0.7-0~ubuntu24.04.1) date 2024-12-31 11:03:13*
%MOMM*%
%LPD*%
G01*
G04 APERTURE LIST*
G04 Aperture macros list*
%AMRoundRect*
0 Rectangle with rounded corners*
0 $1 Rounding radius*
0 $2 $3 $4 $5 $6 $7 $8 $9 X,Y pos of 4 corners*
0 Add a 4 corners polygon primitive as box body*
4,1,4,$2,$3,$4,$5,$6,$7,$8,$9,$2,$3,0*
0 Add four circle primitives for the rounded corners*
1,1,$1+$1,$2,$3*
1,1,$1+$1,$4,$5*
1,1,$1+$1,$6,$7*
1,1,$1+$1,$8,$9*
0 Add four rect primitives between the rounded corners*
20,1,$1+$1,$2,$3,$4,$5,0*
20,1,$1+$1,$4,$5,$6,$7,0*
20,1,$1+$1,$6,$7,$8,$9,0*
20,1,$1+$1,$8,$9,$2,$3,0*%
G04 Aperture macros list end*
%ADD10C,0.120000*%
%ADD11C,0.127000*%
%ADD12RoundRect,0.050000X-0.500000X0.500000X-0.500000X-0.500000X0.500000X-0.500000X0.500000X0.500000X0*%
%ADD13O,1.100000X1.100000*%
%ADD14RoundRect,0.100000X1.250000X1.400000X-1.250000X1.400000X-1.250000X-1.400000X1.250000X-1.400000X0*%
%ADD15RoundRect,0.102000X-1.400000X-1.400000X1.400000X-1.400000X1.400000X1.400000X-1.400000X1.400000X0*%
G04 APERTURE END LIST*
D10*
G04 #@! TO.C,J1*
X140195000Y-89690000D02*
X140195000Y-90492470D01*
X140195000Y-91107530D02*
X140195000Y-91910000D01*
X143940000Y-89690000D02*
X140195000Y-89690000D01*
X143940000Y-89690000D02*
X143940000Y-90236529D01*
X143940000Y-91363471D02*
X143940000Y-91910000D01*
X143940000Y-91910000D02*
X140195000Y-91910000D01*
X144700000Y-89690000D02*
X145460000Y-89690000D01*
X145460000Y-89690000D02*
X145460000Y-90800000D01*
G04 #@! TO.C,J3*
X158000000Y-89500000D02*
X158000000Y-90500000D01*
X159000000Y-89500000D02*
X158000000Y-89500000D01*
X159900000Y-92700000D02*
X160900000Y-92700000D01*
X160900000Y-92700000D02*
X160900000Y-91700000D01*
D11*
G04 #@! TO.C,J2*
X161600000Y-90500000D02*
X164700000Y-90500000D01*
X161600000Y-90850000D02*
X161600000Y-90500000D01*
X161600000Y-93600000D02*
X161600000Y-93250000D01*
X164700000Y-90500000D02*
X164700000Y-90850000D01*
X164700000Y-93250000D02*
X164700000Y-93600000D01*
X164700000Y-93600000D02*
X161600000Y-93600000D01*
D10*
G04 #@! TO.C,J7*
X121000000Y-89500000D02*
X121000000Y-90500000D01*
X122000000Y-89500000D02*
X121000000Y-89500000D01*
X122900000Y-92700000D02*
X123900000Y-92700000D01*
X123900000Y-92700000D02*
X123900000Y-91700000D01*
D11*
G04 #@! TO.C,J6*
X124600001Y-90550000D02*
X127700001Y-90550000D01*
X124600001Y-90900000D02*
X124600001Y-90550000D01*
X124600001Y-93650000D02*
X124600001Y-93300000D01*
X127700001Y-90550000D02*
X127700001Y-90900000D01*
X127700001Y-93300000D02*
X127700001Y-93650000D01*
X127700001Y-93650000D02*
X124600001Y-93650000D01*
G04 #@! TD*
%LPC*%
D12*
G04 #@! TO.C,J1*
X144700000Y-90800000D03*
D13*
X143430000Y-90800000D03*
X142160000Y-90800000D03*
X140890000Y-90800000D03*
G04 #@! TD*
D14*
G04 #@! TO.C,J3*
X159450000Y-91100000D03*
G04 #@! TD*
D15*
G04 #@! TO.C,J2*
X163150000Y-92050000D03*
G04 #@! TD*
D14*
G04 #@! TO.C,J7*
X122450000Y-91100000D03*
G04 #@! TD*
D15*
G04 #@! TO.C,J6*
X126150001Y-92100000D03*
G04 #@! TD*
%LPD*%
M02*
