G04 #@! TF.GenerationSoftware,KiCad,Pcbnew,8.0.7-8.0.7-0~ubuntu24.04.1*
G04 #@! TF.CreationDate,2024-12-31T11:03:13-07:00*
G04 #@! TF.ProjectId,End Cap,456e6420-4361-4702-9e6b-696361645f70,rev?*
G04 #@! TF.SameCoordinates,Original*
G04 #@! TF.FileFunction,Legend,Bot*
G04 #@! TF.FilePolarity,Positive*
%FSLAX46Y46*%
G04 Gerber Fmt 4.6, Leading zero omitted, Abs format (unit mm)*
G04 Created by KiCad (PCBNEW 8.0.7-8.0.7-0~ubuntu24.04.1) date 2024-12-31 11:03:13*
%MOMM*%
%LPD*%
G01*
G04 APERTURE LIST*
G04 Aperture macros list*
%AMRoundRect*
0 Rectangle with rounded corners*
0 $1 Rounding radius*
0 $2 $3 $4 $5 $6 $7 $8 $9 X,Y pos of 4 corners*
0 Add a 4 corners polygon primitive as box body*
4,1,4,$2,$3,$4,$5,$6,$7,$8,$9,$2,$3,0*
0 Add four circle primitives for the rounded corners*
1,1,$1+$1,$2,$3*
1,1,$1+$1,$4,$5*
1,1,$1+$1,$6,$7*
1,1,$1+$1,$8,$9*
0 Add four rect primitives between the rounded corners*
20,1,$1+$1,$2,$3,$4,$5,0*
20,1,$1+$1,$4,$5,$6,$7,0*
20,1,$1+$1,$6,$7,$8,$9,0*
20,1,$1+$1,$8,$9,$2,$3,0*%
G04 Aperture macros list end*
%ADD10C,0.150000*%
%ADD11C,0.120000*%
%ADD12C,0.127000*%
%ADD13RoundRect,0.050000X-0.500000X0.500000X-0.500000X-0.500000X0.500000X-0.500000X0.500000X0.500000X0*%
%ADD14O,1.100000X1.100000*%
%ADD15C,1.100000*%
%ADD16RoundRect,0.100000X-1.250000X-1.400000X1.250000X-1.400000X1.250000X1.400000X-1.250000X1.400000X0*%
%ADD17RoundRect,0.160000X-0.160000X-0.210000X0.160000X-0.210000X0.160000X0.210000X-0.160000X0.210000X0*%
%ADD18RoundRect,0.102000X1.400000X1.400000X-1.400000X1.400000X-1.400000X-1.400000X1.400000X-1.400000X0*%
G04 APERTURE END LIST*
D10*
X150439411Y-93369819D02*
X151010839Y-93369819D01*
X150725125Y-93369819D02*
X150725125Y-92369819D01*
X150725125Y-92369819D02*
X150820363Y-92512676D01*
X150820363Y-92512676D02*
X150915601Y-92607914D01*
X150915601Y-92607914D02*
X151010839Y-92655533D01*
X150058458Y-92465057D02*
X150010839Y-92417438D01*
X150010839Y-92417438D02*
X149915601Y-92369819D01*
X149915601Y-92369819D02*
X149677506Y-92369819D01*
X149677506Y-92369819D02*
X149582268Y-92417438D01*
X149582268Y-92417438D02*
X149534649Y-92465057D01*
X149534649Y-92465057D02*
X149487030Y-92560295D01*
X149487030Y-92560295D02*
X149487030Y-92655533D01*
X149487030Y-92655533D02*
X149534649Y-92798390D01*
X149534649Y-92798390D02*
X150106077Y-93369819D01*
X150106077Y-93369819D02*
X149487030Y-93369819D01*
X148867982Y-92369819D02*
X148772744Y-92369819D01*
X148772744Y-92369819D02*
X148677506Y-92417438D01*
X148677506Y-92417438D02*
X148629887Y-92465057D01*
X148629887Y-92465057D02*
X148582268Y-92560295D01*
X148582268Y-92560295D02*
X148534649Y-92750771D01*
X148534649Y-92750771D02*
X148534649Y-92988866D01*
X148534649Y-92988866D02*
X148582268Y-93179342D01*
X148582268Y-93179342D02*
X148629887Y-93274580D01*
X148629887Y-93274580D02*
X148677506Y-93322200D01*
X148677506Y-93322200D02*
X148772744Y-93369819D01*
X148772744Y-93369819D02*
X148867982Y-93369819D01*
X148867982Y-93369819D02*
X148963220Y-93322200D01*
X148963220Y-93322200D02*
X149010839Y-93274580D01*
X149010839Y-93274580D02*
X149058458Y-93179342D01*
X149058458Y-93179342D02*
X149106077Y-92988866D01*
X149106077Y-92988866D02*
X149106077Y-92750771D01*
X149106077Y-92750771D02*
X149058458Y-92560295D01*
X149058458Y-92560295D02*
X149010839Y-92465057D01*
X149010839Y-92465057D02*
X148963220Y-92417438D01*
X148963220Y-92417438D02*
X148867982Y-92369819D01*
X147201315Y-93369819D02*
X147296553Y-93322200D01*
X147296553Y-93322200D02*
X147344172Y-93274580D01*
X147344172Y-93274580D02*
X147391791Y-93179342D01*
X147391791Y-93179342D02*
X147391791Y-92893628D01*
X147391791Y-92893628D02*
X147344172Y-92798390D01*
X147344172Y-92798390D02*
X147296553Y-92750771D01*
X147296553Y-92750771D02*
X147201315Y-92703152D01*
X147201315Y-92703152D02*
X147058458Y-92703152D01*
X147058458Y-92703152D02*
X146963220Y-92750771D01*
X146963220Y-92750771D02*
X146915601Y-92798390D01*
X146915601Y-92798390D02*
X146867982Y-92893628D01*
X146867982Y-92893628D02*
X146867982Y-93179342D01*
X146867982Y-93179342D02*
X146915601Y-93274580D01*
X146915601Y-93274580D02*
X146963220Y-93322200D01*
X146963220Y-93322200D02*
X147058458Y-93369819D01*
X147058458Y-93369819D02*
X147201315Y-93369819D01*
X146439410Y-93369819D02*
X146439410Y-92369819D01*
X146010839Y-93369819D02*
X146010839Y-92846009D01*
X146010839Y-92846009D02*
X146058458Y-92750771D01*
X146058458Y-92750771D02*
X146153696Y-92703152D01*
X146153696Y-92703152D02*
X146296553Y-92703152D01*
X146296553Y-92703152D02*
X146391791Y-92750771D01*
X146391791Y-92750771D02*
X146439410Y-92798390D01*
X145534648Y-93369819D02*
X145534648Y-92703152D01*
X145534648Y-92798390D02*
X145487029Y-92750771D01*
X145487029Y-92750771D02*
X145391791Y-92703152D01*
X145391791Y-92703152D02*
X145248934Y-92703152D01*
X145248934Y-92703152D02*
X145153696Y-92750771D01*
X145153696Y-92750771D02*
X145106077Y-92846009D01*
X145106077Y-92846009D02*
X145106077Y-93369819D01*
X145106077Y-92846009D02*
X145058458Y-92750771D01*
X145058458Y-92750771D02*
X144963220Y-92703152D01*
X144963220Y-92703152D02*
X144820363Y-92703152D01*
X144820363Y-92703152D02*
X144725124Y-92750771D01*
X144725124Y-92750771D02*
X144677505Y-92846009D01*
X144677505Y-92846009D02*
X144677505Y-93369819D01*
X143582267Y-92703152D02*
X143201315Y-92703152D01*
X143439410Y-92369819D02*
X143439410Y-93226961D01*
X143439410Y-93226961D02*
X143391791Y-93322200D01*
X143391791Y-93322200D02*
X143296553Y-93369819D01*
X143296553Y-93369819D02*
X143201315Y-93369819D01*
X142487029Y-93322200D02*
X142582267Y-93369819D01*
X142582267Y-93369819D02*
X142772743Y-93369819D01*
X142772743Y-93369819D02*
X142867981Y-93322200D01*
X142867981Y-93322200D02*
X142915600Y-93226961D01*
X142915600Y-93226961D02*
X142915600Y-92846009D01*
X142915600Y-92846009D02*
X142867981Y-92750771D01*
X142867981Y-92750771D02*
X142772743Y-92703152D01*
X142772743Y-92703152D02*
X142582267Y-92703152D01*
X142582267Y-92703152D02*
X142487029Y-92750771D01*
X142487029Y-92750771D02*
X142439410Y-92846009D01*
X142439410Y-92846009D02*
X142439410Y-92941247D01*
X142439410Y-92941247D02*
X142915600Y-93036485D01*
X142010838Y-93369819D02*
X142010838Y-92703152D01*
X142010838Y-92893628D02*
X141963219Y-92798390D01*
X141963219Y-92798390D02*
X141915600Y-92750771D01*
X141915600Y-92750771D02*
X141820362Y-92703152D01*
X141820362Y-92703152D02*
X141725124Y-92703152D01*
X141391790Y-93369819D02*
X141391790Y-92703152D01*
X141391790Y-92798390D02*
X141344171Y-92750771D01*
X141344171Y-92750771D02*
X141248933Y-92703152D01*
X141248933Y-92703152D02*
X141106076Y-92703152D01*
X141106076Y-92703152D02*
X141010838Y-92750771D01*
X141010838Y-92750771D02*
X140963219Y-92846009D01*
X140963219Y-92846009D02*
X140963219Y-93369819D01*
X140963219Y-92846009D02*
X140915600Y-92750771D01*
X140915600Y-92750771D02*
X140820362Y-92703152D01*
X140820362Y-92703152D02*
X140677505Y-92703152D01*
X140677505Y-92703152D02*
X140582266Y-92750771D01*
X140582266Y-92750771D02*
X140534647Y-92846009D01*
X140534647Y-92846009D02*
X140534647Y-93369819D01*
X140058457Y-93369819D02*
X140058457Y-92703152D01*
X140058457Y-92369819D02*
X140106076Y-92417438D01*
X140106076Y-92417438D02*
X140058457Y-92465057D01*
X140058457Y-92465057D02*
X140010838Y-92417438D01*
X140010838Y-92417438D02*
X140058457Y-92369819D01*
X140058457Y-92369819D02*
X140058457Y-92465057D01*
X139582267Y-92703152D02*
X139582267Y-93369819D01*
X139582267Y-92798390D02*
X139534648Y-92750771D01*
X139534648Y-92750771D02*
X139439410Y-92703152D01*
X139439410Y-92703152D02*
X139296553Y-92703152D01*
X139296553Y-92703152D02*
X139201315Y-92750771D01*
X139201315Y-92750771D02*
X139153696Y-92846009D01*
X139153696Y-92846009D02*
X139153696Y-93369819D01*
X138248934Y-93369819D02*
X138248934Y-92846009D01*
X138248934Y-92846009D02*
X138296553Y-92750771D01*
X138296553Y-92750771D02*
X138391791Y-92703152D01*
X138391791Y-92703152D02*
X138582267Y-92703152D01*
X138582267Y-92703152D02*
X138677505Y-92750771D01*
X138248934Y-93322200D02*
X138344172Y-93369819D01*
X138344172Y-93369819D02*
X138582267Y-93369819D01*
X138582267Y-93369819D02*
X138677505Y-93322200D01*
X138677505Y-93322200D02*
X138725124Y-93226961D01*
X138725124Y-93226961D02*
X138725124Y-93131723D01*
X138725124Y-93131723D02*
X138677505Y-93036485D01*
X138677505Y-93036485D02*
X138582267Y-92988866D01*
X138582267Y-92988866D02*
X138344172Y-92988866D01*
X138344172Y-92988866D02*
X138248934Y-92941247D01*
X137915600Y-92703152D02*
X137534648Y-92703152D01*
X137772743Y-92369819D02*
X137772743Y-93226961D01*
X137772743Y-93226961D02*
X137725124Y-93322200D01*
X137725124Y-93322200D02*
X137629886Y-93369819D01*
X137629886Y-93369819D02*
X137534648Y-93369819D01*
X137201314Y-93369819D02*
X137201314Y-92703152D01*
X137201314Y-92369819D02*
X137248933Y-92417438D01*
X137248933Y-92417438D02*
X137201314Y-92465057D01*
X137201314Y-92465057D02*
X137153695Y-92417438D01*
X137153695Y-92417438D02*
X137201314Y-92369819D01*
X137201314Y-92369819D02*
X137201314Y-92465057D01*
X136725124Y-92703152D02*
X136725124Y-93369819D01*
X136725124Y-92798390D02*
X136677505Y-92750771D01*
X136677505Y-92750771D02*
X136582267Y-92703152D01*
X136582267Y-92703152D02*
X136439410Y-92703152D01*
X136439410Y-92703152D02*
X136344172Y-92750771D01*
X136344172Y-92750771D02*
X136296553Y-92846009D01*
X136296553Y-92846009D02*
X136296553Y-93369819D01*
X135391791Y-92703152D02*
X135391791Y-93512676D01*
X135391791Y-93512676D02*
X135439410Y-93607914D01*
X135439410Y-93607914D02*
X135487029Y-93655533D01*
X135487029Y-93655533D02*
X135582267Y-93703152D01*
X135582267Y-93703152D02*
X135725124Y-93703152D01*
X135725124Y-93703152D02*
X135820362Y-93655533D01*
X135391791Y-93322200D02*
X135487029Y-93369819D01*
X135487029Y-93369819D02*
X135677505Y-93369819D01*
X135677505Y-93369819D02*
X135772743Y-93322200D01*
X135772743Y-93322200D02*
X135820362Y-93274580D01*
X135820362Y-93274580D02*
X135867981Y-93179342D01*
X135867981Y-93179342D02*
X135867981Y-92893628D01*
X135867981Y-92893628D02*
X135820362Y-92798390D01*
X135820362Y-92798390D02*
X135772743Y-92750771D01*
X135772743Y-92750771D02*
X135677505Y-92703152D01*
X135677505Y-92703152D02*
X135487029Y-92703152D01*
X135487029Y-92703152D02*
X135391791Y-92750771D01*
X137528570Y-90154819D02*
X136909523Y-90154819D01*
X136909523Y-90154819D02*
X137242856Y-90535771D01*
X137242856Y-90535771D02*
X137099999Y-90535771D01*
X137099999Y-90535771D02*
X137004761Y-90583390D01*
X137004761Y-90583390D02*
X136957142Y-90631009D01*
X136957142Y-90631009D02*
X136909523Y-90726247D01*
X136909523Y-90726247D02*
X136909523Y-90964342D01*
X136909523Y-90964342D02*
X136957142Y-91059580D01*
X136957142Y-91059580D02*
X137004761Y-91107200D01*
X137004761Y-91107200D02*
X137099999Y-91154819D01*
X137099999Y-91154819D02*
X137385713Y-91154819D01*
X137385713Y-91154819D02*
X137480951Y-91107200D01*
X137480951Y-91107200D02*
X137528570Y-91059580D01*
X136480951Y-91059580D02*
X136433332Y-91107200D01*
X136433332Y-91107200D02*
X136480951Y-91154819D01*
X136480951Y-91154819D02*
X136528570Y-91107200D01*
X136528570Y-91107200D02*
X136480951Y-91059580D01*
X136480951Y-91059580D02*
X136480951Y-91154819D01*
X136099999Y-90154819D02*
X135480952Y-90154819D01*
X135480952Y-90154819D02*
X135814285Y-90535771D01*
X135814285Y-90535771D02*
X135671428Y-90535771D01*
X135671428Y-90535771D02*
X135576190Y-90583390D01*
X135576190Y-90583390D02*
X135528571Y-90631009D01*
X135528571Y-90631009D02*
X135480952Y-90726247D01*
X135480952Y-90726247D02*
X135480952Y-90964342D01*
X135480952Y-90964342D02*
X135528571Y-91059580D01*
X135528571Y-91059580D02*
X135576190Y-91107200D01*
X135576190Y-91107200D02*
X135671428Y-91154819D01*
X135671428Y-91154819D02*
X135957142Y-91154819D01*
X135957142Y-91154819D02*
X136052380Y-91107200D01*
X136052380Y-91107200D02*
X136099999Y-91059580D01*
X135147618Y-90488152D02*
X134909523Y-91154819D01*
X134909523Y-91154819D02*
X134671428Y-90488152D01*
X149861904Y-90102438D02*
X149957142Y-90054819D01*
X149957142Y-90054819D02*
X150099999Y-90054819D01*
X150099999Y-90054819D02*
X150242856Y-90102438D01*
X150242856Y-90102438D02*
X150338094Y-90197676D01*
X150338094Y-90197676D02*
X150385713Y-90292914D01*
X150385713Y-90292914D02*
X150433332Y-90483390D01*
X150433332Y-90483390D02*
X150433332Y-90626247D01*
X150433332Y-90626247D02*
X150385713Y-90816723D01*
X150385713Y-90816723D02*
X150338094Y-90911961D01*
X150338094Y-90911961D02*
X150242856Y-91007200D01*
X150242856Y-91007200D02*
X150099999Y-91054819D01*
X150099999Y-91054819D02*
X150004761Y-91054819D01*
X150004761Y-91054819D02*
X149861904Y-91007200D01*
X149861904Y-91007200D02*
X149814285Y-90959580D01*
X149814285Y-90959580D02*
X149814285Y-90626247D01*
X149814285Y-90626247D02*
X150004761Y-90626247D01*
X149385713Y-91054819D02*
X149385713Y-90054819D01*
X149385713Y-90054819D02*
X148814285Y-91054819D01*
X148814285Y-91054819D02*
X148814285Y-90054819D01*
X148338094Y-91054819D02*
X148338094Y-90054819D01*
X148338094Y-90054819D02*
X148099999Y-90054819D01*
X148099999Y-90054819D02*
X147957142Y-90102438D01*
X147957142Y-90102438D02*
X147861904Y-90197676D01*
X147861904Y-90197676D02*
X147814285Y-90292914D01*
X147814285Y-90292914D02*
X147766666Y-90483390D01*
X147766666Y-90483390D02*
X147766666Y-90626247D01*
X147766666Y-90626247D02*
X147814285Y-90816723D01*
X147814285Y-90816723D02*
X147861904Y-90911961D01*
X147861904Y-90911961D02*
X147957142Y-91007200D01*
X147957142Y-91007200D02*
X148099999Y-91054819D01*
X148099999Y-91054819D02*
X148338094Y-91054819D01*
D11*
G04 #@! TO.C,TP3*
X139900000Y-90800000D02*
G75*
G02*
X138500000Y-90800000I-700000J0D01*
G01*
X138500000Y-90800000D02*
G75*
G02*
X139900000Y-90800000I700000J0D01*
G01*
G04 #@! TO.C,J5*
X158000000Y-91700000D02*
X158000000Y-92700000D01*
X158000000Y-92700000D02*
X159000000Y-92700000D01*
X160900000Y-89500000D02*
X159900000Y-89500000D01*
X160900000Y-90500000D02*
X160900000Y-89500000D01*
G04 #@! TO.C,R1*
X142853641Y-91520000D02*
X142546359Y-91520000D01*
X142853641Y-92280000D02*
X142546359Y-92280000D01*
G04 #@! TO.C,J9*
X121000000Y-91700000D02*
X121000000Y-92700000D01*
X121000000Y-92700000D02*
X122000000Y-92700000D01*
X123900000Y-89500000D02*
X122900000Y-89500000D01*
X123900000Y-90500000D02*
X123900000Y-89500000D01*
G04 #@! TO.C,TP4*
X147100000Y-90800000D02*
G75*
G02*
X145700000Y-90800000I-700000J0D01*
G01*
X145700000Y-90800000D02*
G75*
G02*
X147100000Y-90800000I700000J0D01*
G01*
D12*
G04 #@! TO.C,J4*
X161600000Y-90500000D02*
X164700000Y-90500000D01*
X161600000Y-90850000D02*
X161600000Y-90500000D01*
X161600000Y-93600000D02*
X161600000Y-93250000D01*
X164700000Y-90500000D02*
X164700000Y-90850000D01*
X164700000Y-93250000D02*
X164700000Y-93600000D01*
X164700000Y-93600000D02*
X161600000Y-93600000D01*
G04 #@! TO.C,J8*
X124600000Y-90550000D02*
X127700000Y-90550000D01*
X124600000Y-90900000D02*
X124600000Y-90550000D01*
X124600000Y-93650000D02*
X124600000Y-93300000D01*
X127700000Y-90550000D02*
X127700000Y-90900000D01*
X127700000Y-93300000D02*
X127700000Y-93650000D01*
X127700000Y-93650000D02*
X124600000Y-93650000D01*
G04 #@! TD*
%LPC*%
D13*
G04 #@! TO.C,J1*
X144700000Y-90800000D03*
D14*
X143430000Y-90800000D03*
X142160000Y-90800000D03*
X140890000Y-90800000D03*
G04 #@! TD*
D15*
G04 #@! TO.C,TP3*
X139200000Y-90800000D03*
G04 #@! TD*
D16*
G04 #@! TO.C,J5*
X159450000Y-91100000D03*
G04 #@! TD*
D17*
G04 #@! TO.C,R1*
X142190000Y-91900000D03*
X143210000Y-91900000D03*
G04 #@! TD*
D16*
G04 #@! TO.C,J9*
X122450000Y-91100000D03*
G04 #@! TD*
D15*
G04 #@! TO.C,TP4*
X146400000Y-90800000D03*
G04 #@! TD*
D18*
G04 #@! TO.C,J4*
X163150000Y-92050000D03*
G04 #@! TD*
G04 #@! TO.C,J8*
X126150000Y-92100000D03*
G04 #@! TD*
%LPD*%
M02*
