%TF.GenerationSoftware,KiCad,Pcbnew,8.0.7-8.0.7-0~ubuntu24.04.1*%
%TF.CreationDate,2024-12-31T11:03:13-07:00*%
%TF.ProjectId,End Cap,456e6420-4361-4702-9e6b-696361645f70,rev?*%
%TF.SameCoordinates,Original*%
%TF.FileFunction,Drillmap*%
%TF.FilePolarity,Positive*%
%FSLAX45Y45*%
G04 Gerber Fmt 4.5, Leading zero omitted, Abs format (unit mm)*
G04 Created by KiCad (PCBNEW 8.0.7-8.0.7-0~ubuntu24.04.1) date 2024-12-31 11:03:13*
%MOMM*%
%LPD*%
G01*
G04 APERTURE LIST*
%ADD10C,0.050000*%
%ADD11C,0.200000*%
G04 APERTURE END LIST*
D10*
X12030000Y-9370000D02*
X12030000Y-9070000D01*
X12230000Y-8870000D02*
X16330000Y-8870000D01*
X16530000Y-9370000D02*
X12030000Y-9370000D01*
X12030000Y-9070000D02*
G75*
G02*
X12230000Y-8870000I200000J0D01*
G01*
X16330000Y-8870000D02*
G75*
G02*
X16530000Y-9070000I0J-200000D01*
G01*
X16530000Y-9070000D02*
X16530000Y-9370000D01*
D11*
X12288277Y-9683984D02*
X12288277Y-9483984D01*
X12288277Y-9483984D02*
X12335896Y-9483984D01*
X12335896Y-9483984D02*
X12364467Y-9493508D01*
X12364467Y-9493508D02*
X12383515Y-9512555D01*
X12383515Y-9512555D02*
X12393039Y-9531603D01*
X12393039Y-9531603D02*
X12402562Y-9569698D01*
X12402562Y-9569698D02*
X12402562Y-9598270D01*
X12402562Y-9598270D02*
X12393039Y-9636365D01*
X12393039Y-9636365D02*
X12383515Y-9655412D01*
X12383515Y-9655412D02*
X12364467Y-9674460D01*
X12364467Y-9674460D02*
X12335896Y-9683984D01*
X12335896Y-9683984D02*
X12288277Y-9683984D01*
X12488277Y-9683984D02*
X12488277Y-9550650D01*
X12488277Y-9588746D02*
X12497801Y-9569698D01*
X12497801Y-9569698D02*
X12507324Y-9560174D01*
X12507324Y-9560174D02*
X12526372Y-9550650D01*
X12526372Y-9550650D02*
X12545420Y-9550650D01*
X12612086Y-9683984D02*
X12612086Y-9550650D01*
X12612086Y-9483984D02*
X12602562Y-9493508D01*
X12602562Y-9493508D02*
X12612086Y-9503031D01*
X12612086Y-9503031D02*
X12621610Y-9493508D01*
X12621610Y-9493508D02*
X12612086Y-9483984D01*
X12612086Y-9483984D02*
X12612086Y-9503031D01*
X12735896Y-9683984D02*
X12716848Y-9674460D01*
X12716848Y-9674460D02*
X12707324Y-9655412D01*
X12707324Y-9655412D02*
X12707324Y-9483984D01*
X12840658Y-9683984D02*
X12821610Y-9674460D01*
X12821610Y-9674460D02*
X12812086Y-9655412D01*
X12812086Y-9655412D02*
X12812086Y-9483984D01*
X13069229Y-9683984D02*
X13069229Y-9483984D01*
X13069229Y-9483984D02*
X13135896Y-9626841D01*
X13135896Y-9626841D02*
X13202562Y-9483984D01*
X13202562Y-9483984D02*
X13202562Y-9683984D01*
X13383515Y-9683984D02*
X13383515Y-9579222D01*
X13383515Y-9579222D02*
X13373991Y-9560174D01*
X13373991Y-9560174D02*
X13354943Y-9550650D01*
X13354943Y-9550650D02*
X13316848Y-9550650D01*
X13316848Y-9550650D02*
X13297801Y-9560174D01*
X13383515Y-9674460D02*
X13364467Y-9683984D01*
X13364467Y-9683984D02*
X13316848Y-9683984D01*
X13316848Y-9683984D02*
X13297801Y-9674460D01*
X13297801Y-9674460D02*
X13288277Y-9655412D01*
X13288277Y-9655412D02*
X13288277Y-9636365D01*
X13288277Y-9636365D02*
X13297801Y-9617317D01*
X13297801Y-9617317D02*
X13316848Y-9607793D01*
X13316848Y-9607793D02*
X13364467Y-9607793D01*
X13364467Y-9607793D02*
X13383515Y-9598270D01*
X13478753Y-9550650D02*
X13478753Y-9750650D01*
X13478753Y-9560174D02*
X13497801Y-9550650D01*
X13497801Y-9550650D02*
X13535896Y-9550650D01*
X13535896Y-9550650D02*
X13554943Y-9560174D01*
X13554943Y-9560174D02*
X13564467Y-9569698D01*
X13564467Y-9569698D02*
X13573991Y-9588746D01*
X13573991Y-9588746D02*
X13573991Y-9645889D01*
X13573991Y-9645889D02*
X13564467Y-9664936D01*
X13564467Y-9664936D02*
X13554943Y-9674460D01*
X13554943Y-9674460D02*
X13535896Y-9683984D01*
X13535896Y-9683984D02*
X13497801Y-9683984D01*
X13497801Y-9683984D02*
X13478753Y-9674460D01*
X13659705Y-9664936D02*
X13669229Y-9674460D01*
X13669229Y-9674460D02*
X13659705Y-9683984D01*
X13659705Y-9683984D02*
X13650182Y-9674460D01*
X13650182Y-9674460D02*
X13659705Y-9664936D01*
X13659705Y-9664936D02*
X13659705Y-9683984D01*
X13659705Y-9560174D02*
X13669229Y-9569698D01*
X13669229Y-9569698D02*
X13659705Y-9579222D01*
X13659705Y-9579222D02*
X13650182Y-9569698D01*
X13650182Y-9569698D02*
X13659705Y-9560174D01*
X13659705Y-9560174D02*
X13659705Y-9579222D01*
M02*
