G04 #@! TF.GenerationSoftware,KiCad,Pcbnew,8.0.7-8.0.7-0~ubuntu24.04.1*
G04 #@! TF.CreationDate,2024-12-31T11:03:13-07:00*
G04 #@! TF.ProjectId,End Cap,456e6420-4361-4702-9e6b-696361645f70,rev?*
G04 #@! TF.SameCoordinates,Original*
G04 #@! TF.FileFunction,Copper,L2,Bot*
G04 #@! TF.FilePolarity,Positive*
%FSLAX46Y46*%
G04 Gerber Fmt 4.6, Leading zero omitted, Abs format (unit mm)*
G04 Created by KiCad (PCBNEW 8.0.7-8.0.7-0~ubuntu24.04.1) date 2024-12-31 11:03:13*
%MOMM*%
%LPD*%
G01*
G04 APERTURE LIST*
G04 Aperture macros list*
%AMRoundRect*
0 Rectangle with rounded corners*
0 $1 Rounding radius*
0 $2 $3 $4 $5 $6 $7 $8 $9 X,Y pos of 4 corners*
0 Add a 4 corners polygon primitive as box body*
4,1,4,$2,$3,$4,$5,$6,$7,$8,$9,$2,$3,0*
0 Add four circle primitives for the rounded corners*
1,1,$1+$1,$2,$3*
1,1,$1+$1,$4,$5*
1,1,$1+$1,$6,$7*
1,1,$1+$1,$8,$9*
0 Add four rect primitives between the rounded corners*
20,1,$1+$1,$2,$3,$4,$5,0*
20,1,$1+$1,$4,$5,$6,$7,0*
20,1,$1+$1,$6,$7,$8,$9,0*
20,1,$1+$1,$8,$9,$2,$3,0*%
G04 Aperture macros list end*
G04 #@! TA.AperFunction,ComponentPad*
%ADD10R,1.000000X1.000000*%
G04 #@! TD*
G04 #@! TA.AperFunction,ComponentPad*
%ADD11O,1.000000X1.000000*%
G04 #@! TD*
G04 #@! TA.AperFunction,SMDPad,CuDef*
%ADD12C,1.000000*%
G04 #@! TD*
G04 #@! TA.AperFunction,SMDPad,CuDef*
%ADD13R,2.500000X2.800000*%
G04 #@! TD*
G04 #@! TA.AperFunction,SMDPad,CuDef*
%ADD14RoundRect,0.135000X-0.135000X-0.185000X0.135000X-0.185000X0.135000X0.185000X-0.135000X0.185000X0*%
G04 #@! TD*
G04 #@! TA.AperFunction,SMDPad,CuDef*
%ADD15R,2.800000X2.800000*%
G04 #@! TD*
G04 #@! TA.AperFunction,Conductor*
%ADD16C,0.600000*%
G04 #@! TD*
G04 #@! TA.AperFunction,Conductor*
%ADD17C,0.200000*%
G04 #@! TD*
G04 APERTURE END LIST*
D10*
G04 #@! TO.P,J1,1,Pin_1*
G04 #@! TO.N,GND*
X144700000Y-90800000D03*
D11*
G04 #@! TO.P,J1,2,Pin_2*
G04 #@! TO.N,Net-(J1-Pin_2)*
X143430000Y-90800000D03*
G04 #@! TO.P,J1,3,Pin_3*
G04 #@! TO.N,Net-(J1-Pin_3)*
X142160000Y-90800000D03*
G04 #@! TO.P,J1,4,Pin_4*
G04 #@! TO.N,Net-(J1-Pin_4)*
X140890000Y-90800000D03*
G04 #@! TD*
D12*
G04 #@! TO.P,TP3,1,1*
G04 #@! TO.N,Net-(J1-Pin_4)*
X139200000Y-90800000D03*
G04 #@! TD*
D13*
G04 #@! TO.P,J5,1,Pin_1*
G04 #@! TO.N,GND*
X159450000Y-91100000D03*
G04 #@! TD*
D14*
G04 #@! TO.P,R1,1*
G04 #@! TO.N,Net-(J1-Pin_3)*
X142190000Y-91900000D03*
G04 #@! TO.P,R1,2*
G04 #@! TO.N,Net-(J1-Pin_2)*
X143210000Y-91900000D03*
G04 #@! TD*
D13*
G04 #@! TO.P,J9,1,Pin_1*
G04 #@! TO.N,GND*
X122450000Y-91100000D03*
G04 #@! TD*
D12*
G04 #@! TO.P,TP4,1,1*
G04 #@! TO.N,GND*
X146400000Y-90800000D03*
G04 #@! TD*
D15*
G04 #@! TO.P,J4,1,Pin_1*
G04 #@! TO.N,GND*
X163150000Y-92050000D03*
G04 #@! TD*
G04 #@! TO.P,J8,1,Pin_1*
G04 #@! TO.N,GND*
X126150000Y-92100000D03*
G04 #@! TD*
D16*
G04 #@! TO.N,Net-(J1-Pin_4)*
X139200000Y-90800000D02*
X140890000Y-90800000D01*
G04 #@! TO.N,GND*
X146400000Y-90800000D02*
X144700000Y-90800000D01*
D17*
G04 #@! TO.N,Net-(J1-Pin_2)*
X143210000Y-91900000D02*
X143210000Y-91020000D01*
X143210000Y-91020000D02*
X143430000Y-90800000D01*
G04 #@! TO.N,Net-(J1-Pin_3)*
X142190000Y-91900000D02*
X142190000Y-90830000D01*
X142190000Y-90830000D02*
X142160000Y-90800000D01*
G04 #@! TD*
G04 #@! TA.AperFunction,Conductor*
G04 #@! TO.N,GND*
G36*
X163304043Y-88900765D02*
G01*
X163526790Y-88915364D01*
X163542848Y-88917479D01*
X163728875Y-88954482D01*
X163757771Y-88960230D01*
X163773438Y-88964428D01*
X163926569Y-89016409D01*
X163980944Y-89034867D01*
X163995921Y-89041070D01*
X164186791Y-89135196D01*
X164192460Y-89137992D01*
X164206508Y-89146102D01*
X164388712Y-89267848D01*
X164401573Y-89277716D01*
X164506495Y-89369730D01*
X164566328Y-89422202D01*
X164577797Y-89433671D01*
X164688160Y-89559517D01*
X164722280Y-89598423D01*
X164732154Y-89611291D01*
X164853897Y-89793492D01*
X164862007Y-89807539D01*
X164958926Y-90004071D01*
X164965133Y-90019057D01*
X165035571Y-90226561D01*
X165039769Y-90242228D01*
X165082518Y-90457140D01*
X165084636Y-90473221D01*
X165099235Y-90695956D01*
X165099500Y-90704066D01*
X165099500Y-93375500D01*
X165079815Y-93442539D01*
X165027011Y-93488294D01*
X164975500Y-93499500D01*
X120624500Y-93499500D01*
X120557461Y-93479815D01*
X120511706Y-93427011D01*
X120500500Y-93375500D01*
X120500500Y-90799997D01*
X138444751Y-90799997D01*
X138444751Y-90800002D01*
X138463685Y-90968056D01*
X138519545Y-91127694D01*
X138519547Y-91127697D01*
X138609518Y-91270884D01*
X138609523Y-91270890D01*
X138729109Y-91390476D01*
X138729115Y-91390481D01*
X138872302Y-91480452D01*
X138872305Y-91480454D01*
X138872309Y-91480455D01*
X138872310Y-91480456D01*
X138944913Y-91505860D01*
X139031943Y-91536314D01*
X139199997Y-91555249D01*
X139200000Y-91555249D01*
X139200003Y-91555249D01*
X139368056Y-91536314D01*
X139368059Y-91536313D01*
X139527690Y-91480456D01*
X139527692Y-91480454D01*
X139527694Y-91480454D01*
X139527697Y-91480452D01*
X139670884Y-91390481D01*
X139670885Y-91390480D01*
X139670890Y-91390477D01*
X139674548Y-91386819D01*
X139735871Y-91353334D01*
X139762229Y-91350500D01*
X140327771Y-91350500D01*
X140394810Y-91370185D01*
X140415452Y-91386819D01*
X140419109Y-91390476D01*
X140419115Y-91390481D01*
X140562302Y-91480452D01*
X140562305Y-91480454D01*
X140562309Y-91480455D01*
X140562310Y-91480456D01*
X140634913Y-91505860D01*
X140721943Y-91536314D01*
X140889997Y-91555249D01*
X140890000Y-91555249D01*
X140890003Y-91555249D01*
X141058056Y-91536314D01*
X141058059Y-91536313D01*
X141217690Y-91480456D01*
X141217692Y-91480454D01*
X141217694Y-91480454D01*
X141217697Y-91480452D01*
X141360884Y-91390481D01*
X141360885Y-91390480D01*
X141360890Y-91390477D01*
X141437319Y-91314048D01*
X141498642Y-91280563D01*
X141568334Y-91285547D01*
X141612681Y-91314048D01*
X141690608Y-91391975D01*
X141724093Y-91453298D01*
X141719109Y-91522990D01*
X141714328Y-91534115D01*
X141680418Y-91603479D01*
X141680418Y-91603482D01*
X141669500Y-91678418D01*
X141669500Y-92121582D01*
X141680418Y-92196518D01*
X141680418Y-92196519D01*
X141680419Y-92196521D01*
X141736921Y-92312099D01*
X141736923Y-92312102D01*
X141827897Y-92403076D01*
X141827900Y-92403078D01*
X141938656Y-92457222D01*
X141943482Y-92459582D01*
X142018418Y-92470500D01*
X142018423Y-92470500D01*
X142361577Y-92470500D01*
X142361582Y-92470500D01*
X142436518Y-92459582D01*
X142494310Y-92431329D01*
X142552099Y-92403078D01*
X142552102Y-92403076D01*
X142612319Y-92342860D01*
X142673642Y-92309375D01*
X142743334Y-92314359D01*
X142787681Y-92342860D01*
X142847897Y-92403076D01*
X142847900Y-92403078D01*
X142958656Y-92457222D01*
X142963482Y-92459582D01*
X143038418Y-92470500D01*
X143038423Y-92470500D01*
X143381577Y-92470500D01*
X143381582Y-92470500D01*
X143456518Y-92459582D01*
X143514310Y-92431329D01*
X143572099Y-92403078D01*
X143572102Y-92403076D01*
X143663076Y-92312102D01*
X143663078Y-92312099D01*
X143691329Y-92254310D01*
X143719582Y-92196518D01*
X143730500Y-92121582D01*
X143730500Y-91678418D01*
X143719582Y-91603482D01*
X143719581Y-91603479D01*
X143718193Y-91593952D01*
X143721797Y-91593426D01*
X143721055Y-91541631D01*
X143757983Y-91482317D01*
X143774543Y-91469866D01*
X143900890Y-91390477D01*
X144020477Y-91270890D01*
X144020481Y-91270884D01*
X144110452Y-91127697D01*
X144110454Y-91127694D01*
X144110454Y-91127692D01*
X144110456Y-91127690D01*
X144166313Y-90968059D01*
X144166313Y-90968058D01*
X144166314Y-90968056D01*
X144185249Y-90800002D01*
X144185249Y-90799997D01*
X144166314Y-90631943D01*
X144110454Y-90472305D01*
X144110452Y-90472302D01*
X144020481Y-90329115D01*
X144020476Y-90329109D01*
X143900890Y-90209523D01*
X143900884Y-90209518D01*
X143757697Y-90119547D01*
X143757694Y-90119545D01*
X143598056Y-90063685D01*
X143430003Y-90044751D01*
X143429997Y-90044751D01*
X143261943Y-90063685D01*
X143102305Y-90119545D01*
X143102302Y-90119547D01*
X142959115Y-90209518D01*
X142959109Y-90209523D01*
X142882681Y-90285952D01*
X142821358Y-90319437D01*
X142751666Y-90314453D01*
X142707319Y-90285952D01*
X142630890Y-90209523D01*
X142630884Y-90209518D01*
X142487697Y-90119547D01*
X142487694Y-90119545D01*
X142328056Y-90063685D01*
X142160003Y-90044751D01*
X142159997Y-90044751D01*
X141991943Y-90063685D01*
X141832305Y-90119545D01*
X141832302Y-90119547D01*
X141689115Y-90209518D01*
X141689109Y-90209523D01*
X141612681Y-90285952D01*
X141551358Y-90319437D01*
X141481666Y-90314453D01*
X141437319Y-90285952D01*
X141360890Y-90209523D01*
X141360884Y-90209518D01*
X141217697Y-90119547D01*
X141217694Y-90119545D01*
X141058056Y-90063685D01*
X140890003Y-90044751D01*
X140889997Y-90044751D01*
X140721943Y-90063685D01*
X140562305Y-90119545D01*
X140562302Y-90119547D01*
X140419115Y-90209518D01*
X140419109Y-90209523D01*
X140415452Y-90213181D01*
X140354129Y-90246666D01*
X140327771Y-90249500D01*
X139762229Y-90249500D01*
X139695190Y-90229815D01*
X139674548Y-90213181D01*
X139670890Y-90209523D01*
X139670884Y-90209518D01*
X139527697Y-90119547D01*
X139527694Y-90119545D01*
X139368056Y-90063685D01*
X139200003Y-90044751D01*
X139199997Y-90044751D01*
X139031943Y-90063685D01*
X138872305Y-90119545D01*
X138872302Y-90119547D01*
X138729115Y-90209518D01*
X138729109Y-90209523D01*
X138609523Y-90329109D01*
X138609518Y-90329115D01*
X138519547Y-90472302D01*
X138519545Y-90472305D01*
X138463685Y-90631943D01*
X138444751Y-90799997D01*
X120500500Y-90799997D01*
X120500500Y-90704066D01*
X120500765Y-90695956D01*
X120503114Y-90660118D01*
X120515364Y-90473207D01*
X120517479Y-90457153D01*
X120560230Y-90242226D01*
X120564428Y-90226561D01*
X120600755Y-90119544D01*
X120634868Y-90019049D01*
X120641067Y-90004083D01*
X120737995Y-89807533D01*
X120746098Y-89793498D01*
X120867853Y-89611279D01*
X120877710Y-89598433D01*
X121022207Y-89433665D01*
X121033665Y-89422207D01*
X121198433Y-89277710D01*
X121211279Y-89267853D01*
X121393498Y-89146098D01*
X121407533Y-89137995D01*
X121604083Y-89041067D01*
X121619049Y-89034868D01*
X121825945Y-88964637D01*
X121826561Y-88964428D01*
X121842228Y-88960230D01*
X122057153Y-88917479D01*
X122073209Y-88915364D01*
X122278058Y-88901938D01*
X122295958Y-88900765D01*
X122304067Y-88900500D01*
X122339882Y-88900500D01*
X163260118Y-88900500D01*
X163295933Y-88900500D01*
X163304043Y-88900765D01*
G37*
G04 #@! TD.AperFunction*
G04 #@! TD*
M02*
